<svg xmlns="http://www.w3.org/2000/svg" xmlns:xlink="http://www.w3.org/1999/xlink" width="40" zoomAndPan="magnify" viewBox="0 0 30 30.000001" height="40" preserveAspectRatio="xMidYMid meet" version="1.2"><defs><clipPath id="f03e369098"><path d="M 1 3 L 29 3 L 29 25.953125 L 1 25.953125 Z M 1 3 "/></clipPath></defs><g id="b237a46b80"><g clip-rule="nonzero" clip-path="url(#f03e369098)"><path style=" stroke:none;fill-rule:nonzero;fill:#00755f;fill-opacity:1;" d="M 26.863281 5.21875 C 24.378906 2.734375 20.359375 2.734375 17.878906 5.21875 L 15.113281 7.984375 L 12.347656 5.21875 C 11.105469 3.976562 9.484375 3.355469 7.855469 3.355469 C 6.234375 3.355469 4.605469 3.976562 3.363281 5.21875 C 0.882812 7.699219 0.882812 11.722656 3.363281 14.199219 L 15.113281 25.949219 L 26.863281 14.199219 C 28.105469 12.960938 28.722656 11.335938 28.722656 9.710938 C 28.722656 8.085938 28.105469 6.460938 26.863281 5.21875 Z M 26.863281 5.21875 "/></g></g></svg>