<svg xmlns="http://www.w3.org/2000/svg" xmlns:xlink="http://www.w3.org/1999/xlink" width="40" zoomAndPan="magnify" viewBox="0 0 30 30.000001" height="40" preserveAspectRatio="xMidYMid meet" version="1.2"><defs><clipPath id="b490a10ef2"><path d="M 0.484375 8 L 28.789062 8 L 28.789062 21.582031 L 0.484375 21.582031 Z M 0.484375 8 "/></clipPath></defs><g id="4d0f9dd238"><g clip-rule="nonzero" clip-path="url(#b490a10ef2)"><path style=" stroke:none;fill-rule:nonzero;fill:#ff9b19;fill-opacity:1;" d="M 28.667969 13.578125 C 28.574219 13.347656 28.4375 13.140625 28.261719 12.960938 C 27.40625 12.074219 26.035156 11.847656 24.917969 11.457031 C 23.765625 11.050781 22.597656 10.679688 21.476562 10.195312 C 19.523438 9.347656 18.976562 9.230469 17.035156 8.359375 C 15.914062 7.855469 15.25 9.5625 16.140625 10.160156 C 17.914062 11.355469 19.28125 11.613281 21.160156 12.550781 C 19.347656 12.570312 16.554688 12.617188 14.746094 12.777344 C 10.339844 13.167969 5.921875 13.527344 1.542969 14.191406 C 0.476562 14.351562 0.558594 16.152344 1.675781 16.082031 C 5.996094 15.820312 10.3125 15.539062 14.648438 15.613281 C 16.816406 15.648438 20.945312 15.621094 20.996094 15.621094 C 19.460938 16.601562 17.367188 17.996094 16.066406 19.273438 C 15.324219 20.003906 16.136719 21.539062 17.15625 20.902344 C 18.660156 19.96875 21.136719 18.769531 22.691406 17.925781 C 23.605469 17.429688 24.542969 16.980469 25.488281 16.546875 C 26.292969 16.179688 27.226562 16.015625 27.957031 15.503906 C 28.425781 15.207031 28.699219 14.785156 28.777344 14.242188 C 28.792969 14.011719 28.757812 13.789062 28.667969 13.578125 Z M 28.667969 13.578125 "/></g></g></svg>