<svg xmlns="http://www.w3.org/2000/svg" xmlns:xlink="http://www.w3.org/1999/xlink" width="500" zoomAndPan="magnify" viewBox="0 0 375 374.999991" height="500" preserveAspectRatio="xMidYMid meet" version="1.2"><defs><clipPath id="c96f20badf"><path d="M 2.5 2.5 L 372.25 2.5 L 372.25 372.25 L 2.5 372.25 Z M 2.5 2.5 "/></clipPath><clipPath id="76c702a3d0"><path d="M 187.375 2.5 C 85.269531 2.5 2.5 85.269531 2.5 187.375 C 2.5 289.476562 85.269531 372.25 187.375 372.25 C 289.476562 372.25 372.25 289.476562 372.25 187.375 C 372.25 85.269531 289.476562 2.5 187.375 2.5 Z M 187.375 2.5 "/></clipPath><clipPath id="970493d19d"><path d="M 45 41.320312 L 283 41.320312 L 283 219 L 45 219 Z M 45 41.320312 "/></clipPath><clipPath id="f53949f722"><path d="M 45 86 L 329.972656 86 L 329.972656 268 L 45 268 Z M 45 86 "/></clipPath></defs><g id="cd1fc0d4ac"><g clip-rule="nonzero" clip-path="url(#c96f20badf)"><g clip-rule="nonzero" clip-path="url(#76c702a3d0)"><path style="fill:none;stroke-width:4;stroke-linecap:butt;stroke-linejoin:miter;stroke:#35b084;stroke-opacity:1;stroke-miterlimit:4;" d="M 246.665727 0.00167114 C 110.434491 0.00167114 0.00166514 110.434497 0.00166514 246.665733 C 0.00166514 382.891756 110.434491 493.329794 246.665727 493.329794 C 382.89175 493.329794 493.329788 382.891756 493.329788 246.665733 C 493.329788 110.434497 382.89175 0.00167114 246.665727 0.00167114 Z M 246.665727 0.00167114 " transform="matrix(0.749501,0,0,0.749501,2.498752,2.498747)"/></g></g><path style=" stroke:none;fill-rule:nonzero;fill:#35b084;fill-opacity:1;" d="M 320.664062 215.25 C 320.304688 215.144531 319.941406 215.078125 319.566406 215.050781 C 319.195312 215.019531 318.824219 215.023438 318.453125 215.070312 C 318.082031 215.113281 317.71875 215.191406 317.359375 215.304688 C 317.003906 215.421875 316.664062 215.570312 316.339844 215.753906 C 316.011719 215.933594 315.707031 216.148438 315.421875 216.390625 C 315.140625 216.632812 314.882812 216.902344 314.652344 217.195312 C 314.421875 217.488281 314.21875 217.804688 314.050781 218.136719 C 313.882812 218.46875 313.746094 218.816406 313.648438 219.175781 C 311.457031 226.867188 308.578125 234.289062 305.011719 241.449219 C 301.445312 248.605469 297.25 255.371094 292.429688 261.753906 C 287.132812 259.441406 286.058594 258 286.015625 258 C 284.644531 253.96875 285.382812 252.332031 286.734375 249.34375 C 287.640625 247.457031 288.324219 245.496094 288.777344 243.453125 C 289.433594 240.292969 288.605469 237.3125 287.859375 234.675781 C 286.570312 230.070312 286.179688 228.679688 290.027344 226.257812 C 296.113281 222.417969 304.164062 216.191406 303.765625 206.492188 C 303.746094 206.121094 303.691406 205.757812 303.597656 205.398438 C 303.507812 205.039062 303.382812 204.691406 303.226562 204.359375 C 303.066406 204.023438 302.875 203.707031 302.65625 203.410156 C 302.433594 203.113281 302.1875 202.839844 301.914062 202.589844 C 301.640625 202.339844 301.34375 202.121094 301.027344 201.929688 C 300.710938 201.738281 300.378906 201.578125 300.03125 201.453125 C 299.683594 201.324219 299.324219 201.234375 298.960938 201.175781 C 298.59375 201.117188 298.226562 201.097656 297.855469 201.113281 C 297.484375 201.128906 297.121094 201.179688 296.761719 201.265625 C 296.398438 201.351562 296.050781 201.472656 295.714844 201.625 C 295.378906 201.78125 295.058594 201.964844 294.757812 202.183594 C 294.460938 202.398438 294.183594 202.644531 293.929688 202.914062 C 293.675781 203.183594 293.453125 203.476562 293.257812 203.789062 C 293.0625 204.105469 292.898438 204.4375 292.765625 204.78125 C 292.636719 205.128906 292.539062 205.484375 292.476562 205.847656 C 292.414062 206.214844 292.390625 206.582031 292.398438 206.953125 C 292.398438 207.976562 292.574219 211.199219 283.960938 216.628906 C 272.933594 223.574219 275.519531 232.804688 276.914062 237.753906 C 277.28125 238.851562 277.523438 239.976562 277.640625 241.128906 C 277.328125 242.359375 276.886719 243.539062 276.320312 244.667969 C 274.660156 248.351562 272.390625 253.386719 275.214844 261.671875 C 276.390625 265.109375 279.460938 268.035156 284.933594 270.816406 C 283.542969 272.371094 282.117188 273.890625 280.65625 275.375 C 279.195312 276.859375 277.699219 278.308594 276.167969 279.722656 C 274.636719 281.132812 273.070312 282.511719 271.472656 283.847656 C 269.878906 285.1875 268.25 286.484375 266.589844 287.746094 C 264.929688 289.007812 263.242188 290.226562 261.523438 291.40625 C 259.804688 292.585938 258.0625 293.722656 256.289062 294.820312 C 254.515625 295.917969 252.71875 296.96875 250.898438 297.980469 C 249.074219 298.988281 247.230469 299.957031 245.359375 300.875 C 243.492188 301.796875 241.601562 302.675781 239.691406 303.507812 C 237.78125 304.335938 235.851562 305.121094 233.902344 305.859375 C 231.953125 306.601562 229.988281 307.292969 228.007812 307.9375 C 226.027344 308.582031 224.03125 309.179688 222.019531 309.726562 C 220.011719 310.277344 217.988281 310.777344 215.953125 311.230469 C 213.921875 311.683594 211.875 312.085938 209.824219 312.441406 C 207.769531 312.796875 205.710938 313.101562 203.640625 313.355469 C 201.574219 313.613281 199.5 313.820312 197.421875 313.976562 C 195.34375 314.132812 193.265625 314.238281 191.183594 314.296875 C 189.097656 314.355469 187.015625 314.359375 184.933594 314.320312 C 182.847656 314.277344 180.769531 314.183594 178.6875 314.042969 C 176.609375 313.898438 174.535156 313.707031 172.464844 313.464844 C 170.398438 313.222656 168.332031 312.933594 166.277344 312.59375 C 164.222656 312.253906 162.175781 311.863281 160.140625 311.425781 C 158.101562 310.988281 156.078125 310.5 154.0625 309.964844 C 152.046875 309.429688 150.046875 308.847656 148.0625 308.214844 C 146.078125 307.585938 144.105469 306.90625 142.152344 306.183594 C 140.199219 305.457031 138.265625 304.683594 136.347656 303.867188 C 134.433594 303.050781 132.535156 302.1875 130.660156 301.277344 C 128.785156 300.371094 126.933594 299.417969 125.105469 298.417969 C 123.273438 297.421875 121.46875 296.382812 119.691406 295.296875 C 117.910156 294.214844 116.15625 293.089844 114.433594 291.921875 C 112.707031 290.753906 111.007812 289.546875 109.339844 288.296875 C 107.671875 287.046875 106.035156 285.757812 104.429688 284.433594 C 104.140625 284.195312 103.832031 283.988281 103.503906 283.8125 C 103.175781 283.632812 102.832031 283.492188 102.476562 283.382812 C 102.121094 283.273438 101.753906 283.199219 101.382812 283.160156 C 101.011719 283.125 100.640625 283.121094 100.269531 283.15625 C 99.898438 283.195312 99.535156 283.265625 99.175781 283.371094 C 98.820312 283.480469 98.476562 283.621094 98.144531 283.792969 C 97.816406 283.96875 97.507812 284.175781 97.21875 284.410156 C 96.925781 284.644531 96.664062 284.90625 96.425781 285.195312 C 96.1875 285.484375 95.980469 285.789062 95.804688 286.117188 C 95.625 286.449219 95.484375 286.789062 95.371094 287.144531 C 95.261719 287.503906 95.1875 287.867188 95.152344 288.238281 C 95.113281 288.609375 95.109375 288.980469 95.144531 289.351562 C 95.179688 289.722656 95.25 290.089844 95.359375 290.445312 C 95.464844 290.804688 95.605469 291.148438 95.777344 291.476562 C 95.953125 291.808594 96.15625 292.117188 96.394531 292.40625 C 96.628906 292.695312 96.890625 292.960938 97.175781 293.199219 C 99.445312 295.074219 101.769531 296.875 104.148438 298.601562 C 106.527344 300.332031 108.960938 301.984375 111.441406 303.5625 C 113.925781 305.140625 116.453125 306.640625 119.03125 308.0625 C 121.605469 309.484375 124.222656 310.824219 126.882812 312.082031 C 129.542969 313.34375 132.238281 314.519531 134.96875 315.609375 C 137.699219 316.699219 140.464844 317.707031 143.257812 318.625 C 146.050781 319.546875 148.871094 320.378906 151.71875 321.125 C 154.5625 321.867188 157.429688 322.523438 160.316406 323.09375 C 163.203125 323.660156 166.105469 324.136719 169.019531 324.523438 C 171.9375 324.910156 174.863281 325.207031 177.796875 325.410156 C 180.730469 325.617188 183.671875 325.730469 186.613281 325.753906 C 189.554688 325.777344 192.492188 325.710938 195.429688 325.550781 C 198.367188 325.390625 201.296875 325.140625 204.21875 324.800781 C 207.140625 324.457031 210.050781 324.027344 212.945312 323.503906 C 215.839844 322.984375 218.71875 322.371094 221.574219 321.671875 C 224.433594 320.972656 227.265625 320.183594 230.074219 319.308594 C 232.882812 318.429688 235.660156 317.46875 238.410156 316.421875 C 241.15625 315.371094 243.871094 314.238281 246.550781 313.023438 C 249.226562 311.804688 251.867188 310.507812 254.464844 309.125 C 257.0625 307.746094 259.613281 306.285156 262.121094 304.746094 C 264.628906 303.207031 267.085938 301.589844 269.492188 299.898438 C 271.898438 298.207031 274.25 296.441406 276.546875 294.605469 C 278.84375 292.769531 281.082031 290.859375 283.261719 288.882812 C 285.441406 286.90625 287.554688 284.867188 289.609375 282.757812 C 291.660156 280.648438 293.644531 278.480469 295.5625 276.25 C 297.480469 274.019531 299.328125 271.730469 301.101562 269.382812 C 302.878906 267.039062 304.578125 264.640625 306.207031 262.1875 C 307.832031 259.738281 309.382812 257.238281 310.851562 254.691406 C 312.324219 252.144531 313.714844 249.554688 315.027344 246.917969 C 316.335938 244.285156 317.566406 241.613281 318.710938 238.90625 C 319.855469 236.195312 320.914062 233.453125 321.890625 230.675781 C 322.863281 227.898438 323.75 225.097656 324.550781 222.265625 C 324.652344 221.910156 324.71875 221.542969 324.75 221.171875 C 324.78125 220.800781 324.773438 220.429688 324.730469 220.0625 C 324.6875 219.691406 324.609375 219.328125 324.496094 218.976562 C 324.382812 218.621094 324.238281 218.28125 324.054688 217.957031 C 323.875 217.628906 323.664062 217.324219 323.425781 217.039062 C 323.183594 216.757812 322.921875 216.5 322.628906 216.265625 C 322.339844 216.035156 322.027344 215.832031 321.695312 215.660156 C 321.367188 215.488281 321.023438 215.351562 320.664062 215.25 Z M 320.664062 215.25 "/><g clip-rule="nonzero" clip-path="url(#970493d19d)"><path style=" stroke:none;fill-rule:nonzero;fill:#35b084;fill-opacity:1;" d="M 51.203125 192.742188 L 51.355469 192.742188 C 51.730469 192.734375 52.101562 192.6875 52.464844 192.605469 C 52.828125 192.523438 53.179688 192.40625 53.523438 192.253906 C 53.863281 192.101562 54.1875 191.917969 54.492188 191.699219 C 54.796875 191.484375 55.078125 191.242188 55.335938 190.96875 C 55.589844 190.699219 55.820312 190.40625 56.019531 190.089844 C 56.21875 189.773438 56.382812 189.441406 56.519531 189.089844 C 56.652344 188.742188 56.75 188.382812 56.8125 188.015625 C 56.875 187.648438 56.902344 187.277344 56.890625 186.902344 C 56.890625 185.777344 56.890625 184.640625 56.890625 183.507812 C 56.890625 175.378906 57.640625 167.324219 59.148438 159.339844 C 60.65625 151.351562 62.890625 143.578125 65.851562 136.007812 C 75.375 153.132812 86.539062 165.234375 93.921875 168.929688 C 96.878906 170.402344 97.21875 172.507812 96.992188 180.109375 C 96.828125 185.386719 96.644531 191.945312 99.609375 198.257812 C 102.578125 204.570312 107.886719 207.066406 112.089844 209.109375 C 116.296875 211.15625 118.609375 212.324219 120.101562 215.421875 C 120.332031 215.90625 120.625 216.34375 120.980469 216.746094 C 121.335938 217.144531 121.742188 217.484375 122.195312 217.769531 C 122.644531 218.054688 123.128906 218.273438 123.644531 218.421875 C 124.15625 218.570312 124.679688 218.644531 125.214844 218.644531 C 125.457031 218.644531 125.695312 218.628906 125.933594 218.601562 C 126.171875 218.570312 126.410156 218.523438 126.640625 218.464844 C 126.875 218.40625 127.101562 218.328125 127.324219 218.242188 C 127.546875 218.152344 127.765625 218.050781 127.976562 217.933594 C 128.1875 217.816406 128.386719 217.6875 128.582031 217.546875 C 128.777344 217.402344 128.960938 217.25 129.132812 217.082031 C 129.308594 216.917969 129.472656 216.742188 129.625 216.558594 C 129.777344 216.371094 129.914062 216.175781 130.042969 215.972656 C 130.171875 215.769531 130.285156 215.558594 130.386719 215.339844 C 130.484375 215.121094 130.570312 214.898438 130.644531 214.667969 C 130.714844 214.4375 130.773438 214.207031 130.816406 213.96875 C 130.859375 213.730469 130.886719 213.492188 130.898438 213.253906 C 130.914062 213.011719 130.910156 212.773438 130.890625 212.535156 C 130.875 212.292969 130.839844 212.058594 130.792969 211.820312 C 130.746094 211.585938 130.683594 211.355469 130.605469 211.125 C 130.527344 210.898438 130.4375 210.675781 130.332031 210.460938 C 127.035156 203.605469 121.460938 200.949219 116.972656 198.820312 C 113.214844 197.03125 111.027344 195.882812 109.859375 193.410156 C 108.050781 189.5625 108.183594 185.132812 108.316406 180.4375 C 108.542969 172.96875 108.808594 163.671875 98.957031 158.75 C 93.441406 155.988281 81.300781 142.742188 71.816406 122.832031 C 73.894531 118.875 76.171875 115.035156 78.640625 111.308594 C 81.113281 107.582031 83.765625 103.992188 86.605469 100.539062 C 89.441406 97.085938 92.449219 93.785156 95.625 90.636719 C 98.796875 87.492188 102.125 84.511719 105.605469 81.707031 C 109.082031 78.898438 112.695312 76.273438 116.441406 73.835938 C 120.1875 71.398438 124.050781 69.15625 128.023438 67.109375 C 132 65.066406 136.070312 63.230469 140.234375 61.601562 C 144.394531 59.972656 148.632812 58.558594 152.9375 57.363281 C 152.9375 68.105469 157.285156 75.777344 160.660156 81.636719 C 163.035156 85.730469 164.917969 88.992188 164.917969 92.101562 C 164.917969 101.308594 164.128906 102.332031 160.5 103.050781 C 158.863281 103.375 156.210938 102.671875 153.65625 102.027344 C 148.375 100.65625 141.808594 98.957031 135.496094 103.050781 C 130.054688 106.578125 129.449219 111.417969 129.042969 114.609375 C 128.683594 117.515625 128.5625 118.484375 125.644531 120.019531 C 123.375 121.21875 119.097656 120.113281 115.324219 119.140625 C 109.59375 117.667969 99.980469 115.203125 95.886719 124.101562 C 90.773438 135.242188 101.003906 142.148438 106.496094 145.859375 C 107.734375 146.699219 108.929688 147.496094 109.882812 148.285156 C 118.472656 155.375 127.273438 155.242188 134.339844 155.078125 C 139.160156 154.996094 143.3125 154.902344 146.871094 156.949219 C 150.238281 158.871094 150.300781 160.519531 150.453125 164.480469 C 150.605469 168.4375 150.820312 174.125 156.367188 178.515625 C 161.03125 182.21875 165.277344 183.433594 169.019531 183.433594 C 173.488281 183.433594 177.253906 181.695312 180.199219 180.367188 C 183.566406 178.808594 185.582031 177.941406 187.78125 178.441406 C 188.90625 178.699219 190 178.984375 191.074219 179.300781 C 191.4375 179.421875 191.804688 179.503906 192.183594 179.550781 C 192.5625 179.597656 192.941406 179.605469 193.320312 179.574219 C 193.699219 179.542969 194.074219 179.476562 194.441406 179.371094 C 194.804688 179.265625 195.15625 179.125 195.496094 178.949219 C 195.832031 178.773438 196.152344 178.566406 196.445312 178.328125 C 196.742188 178.089844 197.011719 177.820312 197.253906 177.527344 C 197.496094 177.234375 197.707031 176.917969 197.886719 176.582031 C 198.066406 176.246094 198.210938 175.898438 198.320312 175.53125 C 198.429688 175.167969 198.5 174.796875 198.535156 174.414062 C 198.570312 174.035156 198.566406 173.65625 198.523438 173.277344 C 198.480469 172.898438 198.402344 172.53125 198.285156 172.167969 C 198.171875 171.804688 198.019531 171.457031 197.832031 171.125 C 197.644531 170.792969 197.429688 170.480469 197.179688 170.191406 C 196.933594 169.90625 196.65625 169.644531 196.355469 169.410156 C 196.054688 169.175781 195.734375 168.976562 195.390625 168.804688 C 195.050781 168.636719 194.695312 168.503906 194.328125 168.40625 C 193.019531 168.007812 191.679688 167.671875 190.308594 167.382812 C 184.222656 166.003906 179.339844 168.261719 175.421875 170.0625 C 170.453125 172.375 168.179688 173.429688 163.433594 169.65625 C 162.136719 168.632812 161.949219 167.609375 161.816406 164.101562 C 161.632812 159.363281 161.359375 152.203125 152.539062 147.140625 C 146.25 143.527344 139.804688 143.640625 134.125 143.761719 C 127.855469 143.867188 122.464844 143.988281 117.125 139.570312 C 115.917969 138.546875 114.433594 137.523438 112.859375 136.5 C 106.210938 132 105.460938 130.578125 105.882812 129.09375 C 106.90625 128.808594 110.363281 129.675781 112.449219 130.21875 C 117.933594 131.632812 124.726562 133.378906 130.863281 130.148438 C 139.046875 125.851562 139.792969 119.742188 140.253906 116.09375 C 140.582031 113.464844 140.714844 113.226562 141.613281 112.644531 C 143.566406 111.386719 146.339844 111.980469 150.699219 113.125 C 154.289062 114.054688 158.359375 115.171875 162.492188 114.351562 C 176.210938 111.796875 176.210938 100.03125 176.210938 92.226562 C 176.210938 86.089844 173.273438 80.972656 170.429688 76.0625 C 166.839844 69.855469 163.496094 63.929688 164.292969 54.878906 C 168.777344 54.070312 173.292969 53.496094 177.835938 53.160156 C 178.144531 57.546875 178.746094 63.460938 179.882812 65.640625 C 184.078125 73.484375 190.050781 76.296875 195.738281 76.296875 C 198.359375 76.285156 200.871094 75.75 203.269531 74.691406 C 214.011719 70.046875 217.027344 62.539062 217.4375 56.359375 C 223.679688 57.769531 229.789062 59.632812 235.757812 61.945312 C 219.257812 79.449219 217.46875 86.496094 225.363281 96.921875 C 226.402344 98.277344 227.578125 99.503906 228.894531 100.59375 C 229.179688 100.859375 229.488281 101.089844 229.820312 101.292969 C 230.15625 101.492188 230.503906 101.660156 230.871094 101.789062 C 231.238281 101.917969 231.613281 102.007812 232 102.058594 C 232.386719 102.113281 232.773438 102.125 233.160156 102.097656 C 233.546875 102.070312 233.929688 102.003906 234.304688 101.898438 C 234.679688 101.792969 235.039062 101.648438 235.382812 101.46875 C 235.730469 101.289062 236.050781 101.078125 236.355469 100.832031 C 236.65625 100.585938 236.929688 100.3125 237.175781 100.011719 C 237.417969 99.710938 237.632812 99.386719 237.8125 99.039062 C 237.988281 98.695312 238.132812 98.335938 238.238281 97.960938 C 238.34375 97.585938 238.410156 97.203125 238.433594 96.816406 C 238.460938 96.429688 238.449219 96.042969 238.398438 95.65625 C 238.34375 95.269531 238.253906 94.894531 238.125 94.527344 C 237.996094 94.160156 237.828125 93.8125 237.628906 93.476562 C 237.425781 93.144531 237.191406 92.835938 236.929688 92.550781 C 236.664062 92.265625 236.371094 92.011719 236.054688 91.785156 C 235.429688 91.269531 234.871094 90.6875 234.386719 90.035156 C 231.320312 86.039062 230 84.132812 246.722656 66.90625 C 256.132812 71.621094 264.835938 77.394531 272.839844 84.226562 C 273.125 84.46875 273.429688 84.683594 273.753906 84.863281 C 274.078125 85.046875 274.421875 85.199219 274.773438 85.3125 C 275.128906 85.429688 275.492188 85.511719 275.863281 85.554688 C 276.234375 85.597656 276.605469 85.605469 276.976562 85.578125 C 277.351562 85.550781 277.714844 85.484375 278.074219 85.386719 C 278.433594 85.285156 278.78125 85.148438 279.113281 84.980469 C 279.445312 84.8125 279.761719 84.613281 280.054688 84.382812 C 280.347656 84.152344 280.617188 83.894531 280.859375 83.613281 C 281.101562 83.328125 281.316406 83.023438 281.5 82.699219 C 281.683594 82.375 281.832031 82.035156 281.949219 81.679688 C 282.066406 81.324219 282.148438 80.960938 282.191406 80.59375 C 282.238281 80.222656 282.246094 79.851562 282.21875 79.476562 C 282.191406 79.105469 282.125 78.738281 282.027344 78.378906 C 281.925781 78.019531 281.792969 77.671875 281.625 77.339844 C 281.457031 77.007812 281.257812 76.695312 281.027344 76.398438 C 280.796875 76.105469 280.539062 75.835938 280.257812 75.59375 C 277.066406 72.855469 273.761719 70.265625 270.339844 67.824219 C 266.921875 65.382812 263.398438 63.09375 259.777344 60.964844 C 256.152344 58.832031 252.441406 56.867188 248.644531 55.066406 C 244.847656 53.265625 240.976562 51.636719 237.035156 50.175781 C 233.09375 48.71875 229.09375 47.4375 225.039062 46.332031 C 220.984375 45.230469 216.886719 44.308594 212.75 43.566406 C 208.613281 42.828125 204.449219 42.269531 200.261719 41.898438 C 196.078125 41.527344 191.882812 41.34375 187.679688 41.34375 C 109.257812 41.34375 45.484375 105.144531 45.484375 183.535156 C 45.484375 184.773438 45.484375 186.011719 45.484375 187.238281 C 45.496094 187.605469 45.542969 187.96875 45.625 188.328125 C 45.707031 188.6875 45.820312 189.03125 45.96875 189.367188 C 46.121094 189.703125 46.300781 190.023438 46.511719 190.324219 C 46.722656 190.625 46.957031 190.902344 47.222656 191.15625 C 47.488281 191.410156 47.773438 191.636719 48.082031 191.835938 C 48.390625 192.035156 48.71875 192.203125 49.058594 192.339844 C 49.398438 192.476562 49.75 192.578125 50.113281 192.644531 C 50.472656 192.714844 50.835938 192.746094 51.203125 192.742188 Z M 198.929688 64.195312 C 194.246094 66.242188 191.769531 63.171875 190.296875 60.597656 C 189.828125 58.007812 189.519531 55.40625 189.367188 52.78125 C 195.035156 52.871094 200.675781 53.332031 206.285156 54.160156 C 206.550781 58.867188 204.324219 61.863281 198.929688 64.195312 Z M 198.929688 64.195312 "/></g><path style=" stroke:none;fill-rule:nonzero;fill:#35b084;fill-opacity:1;" d="M 155.894531 285.515625 C 153.011719 286.386719 150.453125 286.601562 148.425781 280.597656 C 148.3125 280.238281 148.164062 279.890625 147.980469 279.5625 C 147.796875 279.230469 147.585938 278.921875 147.339844 278.636719 C 147.09375 278.347656 146.824219 278.089844 146.527344 277.855469 C 146.234375 277.621094 145.917969 277.417969 145.578125 277.25 C 145.242188 277.078125 144.894531 276.941406 144.53125 276.839844 C 144.167969 276.742188 143.796875 276.675781 143.421875 276.648438 C 143.042969 276.621094 142.667969 276.632812 142.292969 276.679688 C 141.921875 276.726562 141.554688 276.808594 141.195312 276.929688 C 140.839844 277.050781 140.496094 277.203125 140.167969 277.390625 C 139.84375 277.582031 139.539062 277.800781 139.253906 278.046875 C 138.96875 278.296875 138.714844 278.570312 138.484375 278.871094 C 138.257812 279.171875 138.058594 279.492188 137.894531 279.828125 C 137.730469 280.167969 137.597656 280.519531 137.503906 280.886719 C 137.410156 281.25 137.351562 281.621094 137.328125 282 C 137.308594 282.375 137.324219 282.75 137.375 283.125 C 137.429688 283.496094 137.519531 283.863281 137.644531 284.21875 C 140.488281 292.6875 146.195312 297.300781 153.449219 297.300781 C 155.382812 297.28125 157.277344 296.988281 159.128906 296.421875 C 171.402344 292.800781 170.75 281.34375 170.554688 277.578125 C 170.535156 277.207031 170.476562 276.835938 170.386719 276.476562 C 170.292969 276.113281 170.167969 275.761719 170.003906 275.425781 C 169.84375 275.089844 169.652344 274.769531 169.425781 274.472656 C 169.203125 274.171875 168.953125 273.898438 168.671875 273.648438 C 168.394531 273.398438 168.09375 273.179688 167.773438 272.988281 C 167.453125 272.796875 167.117188 272.640625 166.761719 272.515625 C 166.410156 272.390625 166.050781 272.300781 165.679688 272.25 C 165.308594 272.195312 164.9375 272.179688 164.5625 272.199219 C 164.191406 272.21875 163.824219 272.277344 163.460938 272.371094 C 163.097656 272.460938 162.75 272.589844 162.414062 272.75 C 162.074219 272.910156 161.757812 273.105469 161.457031 273.328125 C 161.160156 273.554688 160.882812 273.804688 160.636719 274.082031 C 160.386719 274.359375 160.164062 274.660156 159.976562 274.980469 C 159.785156 275.304688 159.628906 275.640625 159.503906 275.992188 C 159.378906 276.347656 159.289062 276.707031 159.238281 277.078125 C 159.183594 277.449219 159.167969 277.820312 159.1875 278.191406 C 159.507812 284.144531 158.21875 284.8125 155.894531 285.515625 Z M 155.894531 285.515625 "/><g clip-rule="nonzero" clip-path="url(#f53949f722)"><path style=" stroke:none;fill-rule:nonzero;fill:#35b084;fill-opacity:1;" d="M 327.445312 87.847656 C 326.683594 87.316406 325.839844 86.992188 324.914062 86.875 C 323.988281 86.761719 323.09375 86.867188 322.21875 87.191406 L 234.601562 119.785156 C 234.09375 119.964844 233.625 120.214844 233.1875 120.527344 C 232.75 120.84375 232.367188 121.214844 232.035156 121.636719 C 231.703125 122.0625 231.4375 122.523438 231.234375 123.023438 C 231.035156 123.523438 230.90625 124.039062 230.855469 124.578125 C 230.800781 125.113281 230.824219 125.644531 230.921875 126.175781 C 231.019531 126.703125 231.1875 127.210938 231.429688 127.691406 C 231.667969 128.171875 231.972656 128.609375 232.339844 129.003906 C 232.703125 129.402344 233.117188 129.738281 233.578125 130.015625 L 258.128906 145.03125 C 248.003906 155.730469 222.695312 181.316406 195.492188 199.851562 L 192.496094 201.898438 C 156.988281 226.195312 97.378906 266.929688 55.714844 212.085938 C 55.3125 211.554688 54.828125 211.109375 54.265625 210.746094 C 53.703125 210.386719 53.097656 210.132812 52.445312 209.984375 C 51.796875 209.835938 51.136719 209.804688 50.476562 209.886719 C 49.8125 209.972656 49.183594 210.164062 48.589844 210.472656 C 47.996094 210.777344 47.472656 211.171875 47.019531 211.664062 C 46.5625 212.152344 46.207031 212.707031 45.945312 213.320312 C 45.6875 213.9375 45.539062 214.578125 45.507812 215.246094 C 45.472656 215.910156 45.554688 216.5625 45.75 217.203125 C 52.296875 238.683594 65.3125 253.546875 84.417969 261.28125 C 94.945312 265.539062 106.648438 267.421875 118.914062 267.421875 C 152.152344 267.421875 189.429688 253.867188 217.855469 238.113281 C 254.386719 217.855469 287.101562 186.726562 298.671875 175.128906 L 320.152344 196.835938 C 320.554688 197.234375 321.003906 197.566406 321.503906 197.832031 C 322.003906 198.097656 322.53125 198.28125 323.085938 198.390625 C 323.640625 198.5 324.199219 198.523438 324.761719 198.464844 C 325.324219 198.40625 325.863281 198.269531 326.386719 198.050781 C 326.90625 197.828125 327.382812 197.539062 327.820312 197.179688 C 328.253906 196.816406 328.625 196.398438 328.9375 195.925781 C 329.246094 195.453125 329.480469 194.945312 329.640625 194.40625 C 329.800781 193.863281 329.878906 193.308594 329.871094 192.742188 L 329.871094 92.492188 C 329.867188 91.566406 329.648438 90.695312 329.222656 89.875 C 328.792969 89.054688 328.203125 88.378906 327.445312 87.847656 Z M 318.507812 178.953125 L 302.679688 162.964844 C 302.195312 162.476562 301.640625 162.089844 301.019531 161.804688 C 300.394531 161.515625 299.738281 161.347656 299.054688 161.300781 C 298.367188 161.25 297.695312 161.320312 297.039062 161.515625 C 296.378906 161.707031 295.773438 162.011719 295.222656 162.421875 C 294.949219 162.632812 294.691406 162.863281 294.457031 163.117188 C 290.414062 167.34375 253.824219 205.058594 212.3125 228.109375 C 177.367188 247.484375 124.019531 265.027344 88.65625 250.726562 C 85.15625 249.320312 81.84375 247.566406 78.710938 245.46875 C 121.613281 264.15625 170.15625 230.960938 199.011719 211.25 L 201.988281 209.203125 C 238.191406 184.539062 270.027344 149.042969 271.359375 147.539062 C 271.632812 147.226562 271.875 146.890625 272.078125 146.527344 C 272.28125 146.160156 272.441406 145.78125 272.558594 145.382812 C 272.679688 144.980469 272.753906 144.574219 272.785156 144.160156 C 272.8125 143.742188 272.796875 143.328125 272.738281 142.917969 C 272.675781 142.503906 272.570312 142.105469 272.421875 141.714844 C 272.273438 141.328125 272.085938 140.957031 271.855469 140.609375 C 271.625 140.261719 271.359375 139.945312 271.0625 139.65625 C 270.761719 139.367188 270.433594 139.113281 270.078125 138.894531 L 249.546875 126.363281 L 318.507812 100.675781 Z M 318.507812 178.953125 "/></g></g></svg>