<svg xmlns="http://www.w3.org/2000/svg" xmlns:xlink="http://www.w3.org/1999/xlink" width="500" zoomAndPan="magnify" viewBox="0 0 375 374.999991" height="500" preserveAspectRatio="xMidYMid meet" version="1.2"><defs><clipPath id="73acb44d20"><path d="M 23.453125 76.765625 L 351 76.765625 L 351 295 L 23.453125 295 Z M 23.453125 76.765625 "/></clipPath><clipPath id="17e4dad410"><path d="M 4.996094 0 L 374.746094 0 L 374.746094 369.75 L 4.996094 369.75 Z M 4.996094 0 "/></clipPath><clipPath id="a02550a99f"><path d="M 189.871094 0 C 87.769531 0 4.996094 82.769531 4.996094 184.875 C 4.996094 286.980469 87.769531 369.75 189.871094 369.75 C 291.976562 369.75 374.746094 286.980469 374.746094 184.875 C 374.746094 82.769531 291.976562 0 189.871094 0 Z M 189.871094 0 "/></clipPath></defs><g id="2538a4fffe"><g clip-rule="nonzero" clip-path="url(#73acb44d20)"><path style=" stroke:none;fill-rule:nonzero;fill:#35b084;fill-opacity:1;" d="M 329.816406 76.699219 C 329.523438 76.699219 329.210938 76.734375 328.914062 76.800781 L 291.691406 86.640625 C 289.871094 87.109375 288.792969 88.964844 289.28125 90.789062 L 291.292969 98.199219 L 281.785156 100.75 C 258.53125 100.714844 235.277344 100.628906 212.007812 100.609375 C 211.953125 100.59375 211.902344 100.59375 211.851562 100.609375 C 208.242188 100.765625 204.820312 102.257812 202.238281 104.757812 C 202.148438 104.828125 202.082031 104.898438 201.992188 104.984375 C 200 106.945312 198.019531 108.921875 196.023438 110.902344 C 194.027344 112.878906 192.03125 114.859375 190.039062 116.835938 C 188.058594 118.8125 186.0625 120.792969 184.066406 122.769531 C 182.074219 124.730469 180.09375 126.726562 178.097656 128.707031 C 176.101562 130.667969 174.105469 132.644531 172.113281 134.621094 C 171.988281 134.746094 171.867188 134.867188 171.746094 134.988281 C 169.90625 133.808594 167.878906 132.886719 165.691406 132.296875 C 162.585938 131.480469 159.460938 131.359375 156.476562 131.828125 C 147.488281 133.269531 139.644531 140.140625 137.058594 149.71875 C 132.773438 165.648438 139.054688 180.382812 146.097656 190.917969 C 153.160156 201.449219 161.25 208.164062 161.25 208.164062 C 162.011719 208.789062 163.019531 209.066406 164.007812 208.894531 C 164.007812 208.894531 164.738281 208.773438 165.882812 208.511719 C 167.042969 208.253906 168.710938 207.851562 170.707031 207.28125 C 172.703125 206.707031 175.042969 205.960938 177.613281 205.007812 C 180.179688 204.050781 182.957031 202.890625 185.804688 201.484375 C 188.648438 200.078125 191.582031 198.429688 194.445312 196.503906 C 195.15625 196.019531 195.867188 195.515625 196.578125 194.996094 C 197.273438 194.472656 197.96875 193.9375 198.660156 193.378906 C 199.355469 192.824219 200.050781 192.253906 200.710938 191.664062 C 201.386719 191.054688 202.046875 190.449219 202.6875 189.804688 C 203.015625 189.492188 203.328125 189.164062 203.660156 188.832031 C 203.972656 188.503906 204.285156 188.175781 204.597656 187.84375 C 204.820312 187.585938 205.046875 187.339844 205.257812 187.082031 C 205.570312 186.976562 205.878906 186.871094 206.191406 186.769531 L 252.074219 174.464844 C 256.984375 173.355469 260.214844 170.285156 263.058594 168.738281 C 263.128906 168.722656 263.179688 168.6875 263.234375 168.652344 C 273.765625 162.179688 284.28125 155.707031 294.816406 149.234375 L 304.464844 146.648438 L 306.441406 153.902344 C 306.929688 155.722656 308.800781 156.800781 310.625 156.3125 L 347.847656 146.492188 C 349.667969 146.007812 350.746094 144.148438 350.242188 142.328125 L 333.097656 79.214844 C 332.699219 77.738281 331.34375 76.699219 329.816406 76.679688 Z M 189.046875 80.152344 C 170.117188 79.820312 151.113281 84.523438 134.628906 94.121094 L 134.613281 94.121094 C 98.949219 114.09375 77.519531 155.757812 82.222656 196.382812 C 82.359375 198.308594 84.078125 199.730469 86.003906 199.507812 C 87.914062 199.28125 89.269531 197.511719 88.972656 195.601562 C 84.617188 157.839844 104.816406 118.570312 137.976562 100.019531 L 137.996094 100.019531 L 138.03125 100.003906 C 164.214844 84.75 197.621094 82.773438 225.488281 94.691406 C 227.226562 95.492188 229.273438 94.691406 230.019531 92.941406 C 230.765625 91.1875 229.933594 89.15625 228.164062 88.445312 C 216.953125 83.640625 204.945312 80.933594 192.832031 80.289062 L 192.832031 80.308594 C 191.5625 80.238281 190.316406 80.203125 189.046875 80.152344 Z M 327.40625 84.246094 L 342.78125 140.800781 L 312.132812 148.90625 L 296.757812 92.332031 L 308.785156 89.15625 L 310.226562 94.414062 L 312.308594 102.101562 C 312.757812 103.941406 314.667969 105.070312 316.507812 104.566406 C 318.347656 104.0625 319.421875 102.136719 318.867188 100.316406 L 316.785156 92.628906 L 315.363281 87.421875 Z M 293.082031 104.777344 L 302.675781 140.089844 L 292.890625 142.726562 C 292.59375 142.777344 292.300781 142.867188 292.023438 143.003906 C 291.988281 143.023438 291.953125 143.054688 291.917969 143.074219 C 291.882812 143.089844 291.867188 143.089844 291.832031 143.109375 C 291.742188 143.160156 291.675781 143.195312 291.585938 143.246094 C 281.003906 149.753906 270.417969 156.28125 259.832031 162.785156 C 259.796875 162.785156 259.78125 162.785156 259.78125 162.804688 C 255.980469 164.871094 253.238281 167.210938 250.632812 167.835938 C 250.53125 167.871094 250.425781 167.890625 250.320312 167.921875 L 250.289062 167.941406 C 250.21875 167.941406 250.164062 167.957031 250.097656 167.976562 L 204.355469 180.226562 C 204.230469 180.261719 204.128906 180.3125 204.007812 180.367188 C 200.5 181.71875 196.109375 180.816406 193.960938 177.882812 C 193.925781 177.832031 193.871094 177.78125 193.835938 177.726562 C 190.714844 173.980469 192.433594 167.003906 196.875 165.199219 C 204.25 162.941406 199.875 164.332031 207.824219 162.128906 L 207.859375 162.109375 L 222.78125 158.101562 C 230.765625 155.96875 235.503906 147.65625 233.367188 139.65625 C 231.753906 133.652344 226.6875 129.382812 220.890625 128.566406 C 218.964844 128.289062 216.933594 128.394531 214.9375 128.949219 L 202.324219 132.453125 C 201.976562 132.523438 201.648438 132.628906 201.335938 132.785156 C 200.832031 133.027344 200.414062 133.375 200.085938 133.808594 C 198.886719 135.003906 197.707031 136.203125 196.511719 137.398438 C 195.554688 138.371094 194.582031 139.34375 193.628906 140.316406 C 188.824219 140.125 184.050781 141.5625 179.957031 144.304688 C 179.085938 142.570312 178.046875 140.972656 176.847656 139.535156 C 176.867188 139.5 176.882812 139.5 176.902344 139.464844 C 178.898438 137.484375 180.890625 135.507812 182.886719 133.53125 C 184.867188 131.550781 186.863281 129.589844 188.855469 127.613281 C 190.851562 125.632812 192.847656 123.65625 194.84375 121.675781 C 196.824219 119.699219 198.816406 117.722656 200.8125 115.742188 C 202.808594 113.765625 204.804688 111.785156 206.78125 109.808594 C 206.800781 109.789062 206.816406 109.773438 206.835938 109.753906 C 208.222656 108.367188 210.203125 107.5 212.144531 107.414062 C 235.347656 107.414062 258.546875 107.5 281.765625 107.550781 C 282.148438 107.585938 282.53125 107.570312 282.894531 107.484375 C 282.929688 107.484375 282.945312 107.484375 282.980469 107.464844 C 283.015625 107.464844 283.066406 107.449219 283.121094 107.429688 L 283.222656 107.414062 Z M 318.726562 109.339844 C 316.800781 109.269531 315.1875 110.796875 315.1875 112.722656 C 315.1875 114.648438 316.800781 116.195312 318.726562 116.125 C 320.65625 116.195312 322.25 114.648438 322.25 112.722656 C 322.25 110.796875 320.65625 109.269531 318.726562 109.339844 Z M 219.226562 135.210938 C 222.695312 135.335938 225.820312 137.746094 226.808594 141.40625 C 228.007812 145.917969 225.457031 150.34375 221.03125 151.542969 L 213.082031 153.660156 C 212.855469 153.136719 212.597656 152.636719 212.335938 152.132812 C 211.605469 150.796875 210.773438 149.546875 209.800781 148.382812 C 208.847656 147.222656 207.773438 146.144531 206.59375 145.191406 C 205.414062 144.238281 204.128906 143.386719 202.738281 142.691406 C 202.324219 142.464844 201.890625 142.277344 201.457031 142.085938 C 202.515625 141.007812 203.574219 139.949219 204.632812 138.875 L 216.777344 135.507812 C 217.59375 135.28125 218.410156 135.195312 219.226562 135.210938 Z M 159.878906 138.371094 C 161.214844 138.355469 162.585938 138.527344 163.9375 138.890625 C 169.40625 140.347656 173.691406 144.722656 175.199219 150.585938 C 175.859375 153.136719 179.070312 154.007812 180.925781 152.113281 C 185.179688 147.792969 191.113281 146.128906 196.597656 147.566406 C 197.671875 147.863281 198.695312 148.246094 199.652344 148.75 C 200.605469 149.234375 201.492188 149.808594 202.304688 150.484375 C 203.140625 151.144531 203.886719 151.890625 204.5625 152.703125 C 205.238281 153.539062 205.828125 154.421875 206.347656 155.378906 C 206.367188 155.394531 206.367188 155.429688 206.402344 155.464844 L 206.070312 155.550781 L 206.054688 155.550781 C 206.054688 155.550781 206.054688 155.550781 206.054688 155.566406 C 197.96875 157.804688 202.738281 156.296875 194.671875 158.761719 C 194.582031 158.796875 194.496094 158.832031 194.410156 158.863281 C 185.351562 162.472656 182.402344 174.464844 188.578125 181.996094 C 190.4375 184.496094 192.933594 186.160156 195.695312 187.046875 C 195.261719 187.410156 194.84375 187.777344 194.410156 188.121094 C 193.804688 188.609375 193.179688 189.09375 192.554688 189.546875 C 191.929688 190.015625 191.285156 190.449219 190.644531 190.898438 C 188.078125 192.617188 185.421875 194.125 182.800781 195.410156 C 180.199219 196.695312 177.628906 197.769531 175.253906 198.65625 C 172.875 199.539062 170.6875 200.234375 168.832031 200.773438 C 167.007812 201.292969 165.535156 201.65625 164.476562 201.882812 C 162.984375 200.566406 157.429688 195.601562 151.773438 187.167969 C 145.316406 177.519531 140.058594 164.800781 143.652344 151.523438 C 145.785156 143.578125 152.625 138.421875 159.894531 138.371094 Z M 286.972656 161.554688 C 284.820312 161.625 283.257812 163.636719 283.746094 165.71875 C 291.675781 202.214844 276.316406 242.578125 246.15625 264.5625 L 246.105469 264.613281 C 216.152344 287.46875 173.082031 290.558594 140.128906 272.300781 C 138.480469 271.347656 136.382812 271.9375 135.445312 273.605469 C 134.523438 275.269531 135.148438 277.371094 136.832031 278.253906 C 172.25 297.863281 218.027344 294.582031 250.21875 270.027344 C 282.652344 246.359375 298.929688 203.53125 290.40625 164.296875 C 290.078125 162.664062 288.621094 161.519531 286.972656 161.554688 Z M 216.585938 198.03125 C 214.644531 198.101562 212.683594 198.550781 210.828125 199.453125 C 210.773438 199.488281 210.703125 199.507812 210.652344 199.539062 C 197.117188 207.160156 183.703125 214.933594 170.253906 222.621094 C 169.195312 215.402344 162.933594 209.832031 155.417969 209.8125 L 90.621094 209.621094 C 89.996094 209.621094 89.371094 209.65625 88.746094 209.746094 C 88.730469 209.746094 88.695312 209.746094 88.679688 209.761719 C 88.660156 209.761719 88.625 209.761719 88.609375 209.761719 C 88.433594 209.796875 88.261719 209.796875 88.105469 209.847656 C 88 209.867188 87.914062 209.882812 87.808594 209.917969 C 87.671875 209.933594 87.550781 209.953125 87.410156 210.003906 C 87.289062 210.023438 87.167969 210.074219 87.046875 210.089844 C 86.941406 210.125 86.839844 210.160156 86.734375 210.179688 C 86.59375 210.214844 86.4375 210.265625 86.300781 210.300781 C 86.214844 210.335938 86.125 210.371094 86.039062 210.402344 C 85.867188 210.4375 85.710938 210.492188 85.554688 210.558594 C 85.503906 210.578125 85.449219 210.59375 85.398438 210.628906 C 85.207031 210.714844 85 210.769531 84.808594 210.855469 L 84.789062 210.855469 C 84.773438 210.871094 84.773438 210.871094 84.773438 210.871094 C 84.183594 211.117188 83.59375 211.394531 83.039062 211.722656 L 71.445312 218.351562 L 68.511719 220.035156 L 67.765625 217.292969 C 67.265625 215.488281 65.40625 214.414062 63.585938 214.898438 L 26.363281 224.71875 C 24.539062 225.207031 23.464844 227.0625 23.949219 228.867188 L 41.113281 292 C 41.617188 293.820312 43.472656 294.894531 45.296875 294.410156 L 82.535156 284.570312 C 84.339844 284.101562 85.414062 282.246094 84.929688 280.421875 L 83.835938 276.449219 L 88.3125 273.882812 L 99.90625 267.234375 C 100.53125 266.871094 101.1875 266.628906 101.847656 266.453125 C 102.507812 266.28125 103.183594 266.175781 103.914062 266.175781 L 149.585938 266.28125 C 152.226562 266.417969 154.863281 265.882812 157.207031 264.683594 C 157.257812 264.648438 157.308594 264.613281 157.34375 264.582031 C 179.332031 252.035156 201.28125 239.417969 223.234375 226.855469 C 229.5 223.921875 233.367188 216.910156 231.648438 209.917969 C 230.277344 203.027344 224.03125 198.324219 217.402344 198.136719 C 217.125 198.117188 216.847656 198.117188 216.570312 198.136719 Z M 216.328125 204.9375 C 220.109375 204.765625 224.308594 207.488281 225.019531 211.183594 C 225.039062 211.253906 225.054688 211.324219 225.074219 211.375 C 225.992188 214.984375 223.683594 219.148438 220.195312 220.675781 C 220.09375 220.730469 219.972656 220.78125 219.867188 220.851562 C 197.949219 233.398438 176.050781 245.996094 154.117188 258.523438 C 152.816406 259.167969 151.304688 259.480469 149.863281 259.375 C 149.847656 259.375 149.8125 259.375 149.796875 259.375 C 149.742188 259.375 149.675781 259.375 149.605469 259.375 L 149.550781 259.375 C 149.535156 259.375 149.519531 259.375 149.5 259.375 L 103.929688 259.269531 C 103.53125 259.269531 103.132812 259.289062 102.714844 259.324219 C 102.542969 259.304688 102.371094 259.324219 102.179688 259.339844 C 101.570312 259.425781 100.945312 259.53125 100.339844 259.6875 C 100.253906 259.722656 100.183594 259.722656 100.097656 259.757812 C 100.027344 259.757812 99.976562 259.789062 99.921875 259.789062 C 99.296875 259.945312 98.691406 260.15625 98.117188 260.398438 C 97.945312 260.46875 97.789062 260.554688 97.648438 260.640625 C 97.265625 260.796875 96.902344 261.003906 96.539062 261.214844 L 84.964844 267.84375 L 82.015625 269.527344 L 70.371094 226.679688 L 74.847656 224.128906 L 86.4375 217.484375 C 86.820312 217.277344 87.203125 217.101562 87.585938 216.945312 C 87.742188 216.875 87.914062 216.824219 88.070312 216.753906 C 88.210938 216.71875 88.347656 216.667969 88.46875 216.667969 C 88.589844 216.632812 88.695312 216.597656 88.800781 216.582031 C 89.007812 216.53125 89.234375 216.476562 89.441406 216.476562 C 89.824219 216.40625 90.203125 216.390625 90.605469 216.390625 L 155.402344 216.5625 C 160 216.582031 163.609375 220.171875 163.625 224.738281 C 163.625 229.285156 160.085938 232.824219 155.488281 232.824219 L 123.089844 232.71875 L 115.003906 232.683594 C 113.078125 232.617188 111.460938 234.144531 111.460938 236.070312 C 111.445312 237.996094 113.042969 239.558594 114.96875 239.488281 L 123.070312 239.503906 L 155.46875 239.609375 C 161.386719 239.625 166.542969 236.15625 168.953125 231.140625 C 169.039062 231.105469 169.109375 231.070312 169.179688 231.035156 C 184.085938 222.535156 198.90625 213.925781 213.828125 205.527344 C 214.609375 205.144531 215.460938 204.953125 216.328125 204.902344 Z M 62.09375 222.222656 L 77.46875 278.792969 L 46.804688 286.894531 L 31.429688 230.324219 L 43.472656 227.148438 L 44.894531 232.390625 L 46.996094 240.078125 C 47.445312 241.933594 49.339844 243.0625 51.195312 242.558594 C 53.035156 242.054688 54.109375 240.128906 53.554688 238.308594 L 51.472656 230.621094 L 50.050781 225.414062 Z M 53.417969 247.3125 C 48.921875 247.367188 48.921875 254.0625 53.417969 254.117188 C 57.894531 254.0625 57.894531 247.367188 53.417969 247.3125 Z M 53.417969 247.3125 "/></g><g clip-rule="nonzero" clip-path="url(#17e4dad410)"><g clip-rule="nonzero" clip-path="url(#a02550a99f)"><path style="fill:none;stroke-width:4;stroke-linecap:butt;stroke-linejoin:miter;stroke:#35b084;stroke-opacity:1;stroke-miterlimit:4;" d="M 246.662186 0 C 110.436163 0 -0.00187552 110.432826 -0.00187552 246.664062 C -0.00187552 382.895297 110.436163 493.328123 246.662186 493.328123 C 382.893421 493.328123 493.326248 382.895297 493.326248 246.664062 C 493.326248 110.432826 382.893421 0 246.662186 0 Z M 246.662186 0 " transform="matrix(0.749501,0,0,0.749501,4.997499,0)"/></g></g></g></svg>