<svg xmlns="http://www.w3.org/2000/svg" xmlns:xlink="http://www.w3.org/1999/xlink" width="500" zoomAndPan="magnify" viewBox="0 0 375 374.999991" height="500" preserveAspectRatio="xMidYMid meet" version="1.2"><defs><clipPath id="71b4ca99e6"><path d="M 2.5 2.5 L 372.25 2.5 L 372.25 372.25 L 2.5 372.25 Z M 2.5 2.5 "/></clipPath><clipPath id="8dac786a7d"><path d="M 187.375 2.5 C 85.269531 2.5 2.5 85.269531 2.5 187.375 C 2.5 289.476562 85.269531 372.25 187.375 372.25 C 289.476562 372.25 372.25 289.476562 372.25 187.375 C 372.25 85.269531 289.476562 2.5 187.375 2.5 Z M 187.375 2.5 "/></clipPath><clipPath id="e44d7b4e2e"><path d="M 177 19.808594 L 250 19.808594 L 250 127 L 177 127 Z M 177 19.808594 "/></clipPath><clipPath id="d00dd263ce"><path d="M 65.828125 138 L 138 138 L 138 246 L 65.828125 246 Z M 65.828125 138 "/></clipPath><clipPath id="b4ec8729bc"><path d="M 237 295 L 286 295 L 286 322.808594 L 237 322.808594 Z M 237 295 "/></clipPath><clipPath id="cb7f369f12"><path d="M 225 193 L 297.578125 193 L 297.578125 301 L 225 301 Z M 225 193 "/></clipPath></defs><g id="e8b98a2911"><g clip-rule="nonzero" clip-path="url(#71b4ca99e6)"><g clip-rule="nonzero" clip-path="url(#8dac786a7d)"><path style="fill:none;stroke-width:4;stroke-linecap:butt;stroke-linejoin:miter;stroke:#35b084;stroke-opacity:1;stroke-miterlimit:4;" d="M 246.665727 0.00167114 C 110.434491 0.00167114 0.00166514 110.434497 0.00166514 246.665733 C 0.00166514 382.891756 110.434491 493.329794 246.665727 493.329794 C 382.89175 493.329794 493.329788 382.891756 493.329788 246.665733 C 493.329788 110.434497 382.89175 0.00167114 246.665727 0.00167114 Z M 246.665727 0.00167114 " transform="matrix(0.749501,0,0,0.749501,2.498752,2.498747)"/></g></g><path style=" stroke:none;fill-rule:nonzero;fill:#35b084;fill-opacity:1;" d="M 208.078125 146.292969 C 209.496094 144.695312 209.320312 142.214844 207.722656 140.617188 C 206.128906 139.199219 203.46875 139.375 202.046875 140.972656 L 114.78125 245.265625 C 113.363281 246.863281 113.539062 249.523438 115.136719 250.941406 C 116.910156 252.359375 119.394531 252.183594 120.8125 250.585938 Z M 120.28125 255.375 C 118.152344 254.664062 116.023438 255.730469 115.136719 257.859375 C 114.425781 259.808594 115.492188 262.113281 117.621094 262.824219 L 240.183594 306.988281 C 242.3125 307.699219 244.617188 306.636719 245.324219 304.683594 C 246.035156 302.554688 244.972656 300.25 242.84375 299.539062 Z M 120.28125 255.375 "/><path style=" stroke:none;fill-rule:nonzero;fill:#35b084;fill-opacity:1;" d="M 199.566406 121.460938 C 197.96875 122.171875 196.371094 123.058594 195.128906 123.945312 C 191.582031 126.605469 189.453125 129.976562 189.453125 133.699219 C 189.453125 138.3125 192.648438 142.390625 197.613281 145.050781 C 201.691406 147.355469 207.546875 148.777344 213.753906 148.777344 C 219.960938 148.777344 225.816406 147.355469 230.070312 145.050781 C 235.039062 142.390625 238.054688 138.3125 238.054688 133.699219 C 238.054688 129.976562 235.925781 126.605469 232.378906 123.945312 C 231.136719 123.058594 229.539062 122.171875 227.945312 121.460938 C 227.058594 123.058594 226.171875 124.652344 225.285156 126.25 L 224.394531 127.847656 C 221.382812 133.699219 214.109375 136.003906 208.078125 132.988281 C 205.773438 131.75 204 129.796875 202.933594 127.492188 C 201.871094 125.363281 200.804688 123.414062 199.566406 121.460938 Z M 199.566406 121.460938 "/><g clip-rule="nonzero" clip-path="url(#e44d7b4e2e)"><path style=" stroke:none;fill-rule:evenodd;fill:#35b084;fill-opacity:1;" d="M 249.761719 55.835938 C 249.761719 45.902344 245.679688 36.855469 239.117188 30.46875 C 232.734375 23.90625 223.6875 19.828125 213.753906 19.828125 C 203.820312 19.828125 194.777344 23.90625 188.390625 30.46875 C 181.828125 36.855469 177.75 45.902344 177.75 55.835938 C 177.75 66.300781 191.582031 91.308594 201.871094 109.222656 C 202.402344 110.285156 203.113281 111.351562 203.644531 112.414062 C 206.304688 117.027344 208.609375 121.105469 210.03125 123.945312 C 210.382812 124.652344 211.09375 125.363281 211.980469 125.894531 C 213.933594 126.78125 216.238281 126.074219 217.300781 124.121094 C 218.898438 121.285156 221.203125 117.203125 223.863281 112.414062 C 224.394531 111.351562 225.105469 110.285156 225.636719 109.222656 C 235.925781 91.308594 249.761719 66.300781 249.761719 55.835938 Z M 201.160156 43.0625 C 204.355469 39.871094 208.789062 37.921875 213.753906 37.921875 C 223.6875 37.921875 231.667969 45.902344 231.667969 55.65625 C 231.667969 60.625 229.539062 65.058594 226.347656 68.25 C 223.15625 71.441406 218.71875 73.570312 213.753906 73.570312 C 204 73.570312 195.839844 65.589844 195.839844 55.65625 C 195.839844 50.691406 197.96875 46.257812 201.160156 43.0625 Z M 201.160156 43.0625 "/></g><path style=" stroke:none;fill-rule:nonzero;fill:#35b084;fill-opacity:1;" d="M 87.644531 240.476562 C 85.871094 241.1875 84.453125 242.074219 83.03125 242.960938 C 79.664062 245.621094 77.535156 248.988281 77.535156 252.714844 C 77.535156 257.328125 80.550781 261.40625 85.515625 264.066406 C 89.773438 266.371094 95.449219 267.789062 101.835938 267.789062 C 108.042969 267.789062 113.71875 266.371094 117.976562 264.066406 C 122.941406 261.40625 125.957031 257.328125 125.957031 252.714844 C 125.957031 248.988281 123.828125 245.621094 120.457031 242.960938 C 119.039062 242.074219 117.621094 241.1875 115.847656 240.476562 C 114.960938 242.074219 114.074219 243.667969 113.1875 245.265625 L 112.300781 246.863281 C 109.285156 252.714844 102.011719 255.019531 96.160156 252.003906 C 93.851562 250.761719 92.078125 248.8125 90.835938 246.507812 C 89.949219 244.378906 88.707031 242.425781 87.644531 240.476562 Z M 87.644531 240.476562 "/><g clip-rule="nonzero" clip-path="url(#d00dd263ce)"><path style=" stroke:none;fill-rule:evenodd;fill:#35b084;fill-opacity:1;" d="M 137.664062 174.847656 C 137.664062 164.917969 133.761719 155.871094 127.199219 149.484375 C 120.636719 142.921875 111.765625 138.84375 101.835938 138.84375 C 91.902344 138.84375 82.855469 142.921875 76.292969 149.484375 C 69.730469 155.871094 65.828125 164.917969 65.828125 174.847656 C 65.828125 185.3125 79.664062 210.324219 89.773438 228.238281 C 90.484375 229.300781 91.015625 230.367188 91.722656 231.429688 C 94.207031 236.042969 96.511719 240.121094 98.109375 242.960938 C 98.464844 243.667969 98.996094 244.378906 99.882812 244.910156 C 101.835938 245.796875 104.316406 245.085938 105.203125 243.136719 C 106.800781 240.296875 109.105469 236.21875 111.765625 231.429688 C 112.476562 230.367188 113.007812 229.300781 113.71875 228.238281 C 123.828125 210.324219 137.664062 185.3125 137.664062 174.847656 Z M 89.0625 162.078125 C 92.433594 158.886719 96.867188 156.933594 101.835938 156.933594 C 111.589844 156.933594 119.570312 164.917969 119.570312 174.671875 C 119.570312 179.636719 117.621094 184.074219 114.425781 187.265625 C 111.058594 190.457031 106.625 192.585938 101.835938 192.585938 C 91.902344 192.585938 83.917969 184.605469 83.917969 174.671875 C 83.917969 169.707031 85.871094 165.269531 89.0625 162.078125 Z M 89.0625 162.078125 "/></g><g clip-rule="nonzero" clip-path="url(#b4ec8729bc)"><path style=" stroke:none;fill-rule:nonzero;fill:#35b084;fill-opacity:1;" d="M 247.277344 295.285156 C 245.679688 295.992188 244.085938 296.878906 242.84375 297.765625 C 239.296875 300.425781 237.167969 303.796875 237.167969 307.523438 C 237.167969 312.132812 240.183594 316.210938 245.148438 318.875 C 249.40625 321.179688 255.257812 322.597656 261.464844 322.597656 C 267.675781 322.597656 273.351562 321.179688 277.605469 318.875 C 282.574219 316.210938 285.765625 312.132812 285.765625 307.523438 C 285.765625 303.796875 283.636719 300.425781 280.089844 297.765625 C 278.847656 296.878906 277.253906 295.992188 275.65625 295.285156 C 274.769531 296.878906 273.707031 298.476562 272.816406 300.070312 L 272.109375 301.667969 C 268.917969 307.699219 261.644531 309.828125 255.789062 306.8125 C 253.484375 305.570312 251.710938 303.621094 250.648438 301.3125 C 249.582031 299.363281 248.519531 297.234375 247.277344 295.285156 Z M 247.277344 295.285156 "/></g><g clip-rule="nonzero" clip-path="url(#cb7f369f12)"><path style=" stroke:none;fill-rule:evenodd;fill:#35b084;fill-opacity:1;" d="M 297.472656 229.65625 C 297.472656 219.722656 293.394531 210.855469 286.832031 204.292969 C 280.445312 197.730469 271.398438 193.652344 261.464844 193.652344 C 251.535156 193.652344 242.488281 197.730469 235.925781 204.292969 C 229.539062 210.855469 225.460938 219.722656 225.460938 229.65625 C 225.460938 240.121094 239.296875 265.128906 249.40625 283.042969 C 250.113281 284.109375 250.824219 285.171875 251.355469 286.238281 C 254.015625 290.847656 256.324219 294.929688 257.742188 297.765625 C 258.097656 298.652344 258.804688 299.183594 259.515625 299.71875 C 261.464844 300.78125 263.949219 299.894531 265.015625 297.945312 C 266.433594 295.105469 268.738281 291.027344 271.578125 286.238281 C 272.109375 285.171875 272.816406 284.109375 273.351562 283.042969 C 283.460938 265.128906 297.472656 240.121094 297.472656 229.65625 Z M 248.875 216.886719 C 252.066406 213.691406 256.5 211.742188 261.464844 211.742188 C 271.222656 211.742188 279.203125 219.722656 279.203125 229.480469 C 279.203125 234.445312 277.253906 238.878906 274.058594 242.074219 C 270.867188 245.441406 266.433594 247.394531 261.464844 247.394531 C 251.535156 247.394531 243.550781 239.410156 243.550781 229.480469 C 243.550781 224.691406 245.503906 220.078125 248.875 216.886719 Z M 248.875 216.886719 "/></g></g></svg>