<svg xmlns="http://www.w3.org/2000/svg" xmlns:xlink="http://www.w3.org/1999/xlink" width="500" zoomAndPan="magnify" viewBox="0 0 375 374.999991" height="500" preserveAspectRatio="xMidYMid meet" version="1.2"><defs><clipPath id="f36c4b7c6d"><path d="M 2.5 2.5 L 372.25 2.5 L 372.25 372.25 L 2.5 372.25 Z M 2.5 2.5 "/></clipPath><clipPath id="252c2634da"><path d="M 187.375 2.5 C 85.269531 2.5 2.5 85.269531 2.5 187.375 C 2.5 289.476562 85.269531 372.25 187.375 372.25 C 289.476562 372.25 372.25 289.476562 372.25 187.375 C 372.25 85.269531 289.476562 2.5 187.375 2.5 Z M 187.375 2.5 "/></clipPath><clipPath id="8ec2532b6a"><path d="M 77.082031 49.476562 L 297.582031 49.476562 L 297.582031 325.476562 L 77.082031 325.476562 Z M 77.082031 49.476562 "/></clipPath></defs><g id="84d420f294"><g clip-rule="nonzero" clip-path="url(#f36c4b7c6d)"><g clip-rule="nonzero" clip-path="url(#252c2634da)"><path style="fill:none;stroke-width:4;stroke-linecap:butt;stroke-linejoin:miter;stroke:#35b084;stroke-opacity:1;stroke-miterlimit:4;" d="M 246.665727 0.00167114 C 110.434491 0.00167114 0.00166514 110.434497 0.00166514 246.665733 C 0.00166514 382.891756 110.434491 493.329794 246.665727 493.329794 C 382.89175 493.329794 493.329788 382.891756 493.329788 246.665733 C 493.329788 110.434497 382.89175 0.00167114 246.665727 0.00167114 Z M 246.665727 0.00167114 " transform="matrix(0.749501,0,0,0.749501,2.498752,2.498747)"/></g></g><g clip-rule="nonzero" clip-path="url(#8ec2532b6a)"><path style=" stroke:none;fill-rule:nonzero;fill:#35b084;fill-opacity:1;" d="M 86.269531 58.667969 L 288.394531 58.667969 L 288.394531 77.042969 L 86.269531 77.042969 Z M 279.207031 113.792969 L 242.457031 113.792969 L 242.457031 104.605469 L 251.644531 104.605469 L 251.644531 95.417969 L 123.019531 95.417969 L 123.019531 104.605469 L 132.207031 104.605469 L 132.207031 113.792969 L 95.457031 113.792969 L 95.457031 86.230469 L 279.207031 86.230469 Z M 160.144531 104.605469 L 214.515625 104.605469 C 212.328125 117.636719 200.96875 127.574219 187.332031 127.574219 C 173.695312 127.574219 162.335938 117.636719 160.144531 104.605469 Z M 233.269531 214.855469 L 187.332031 214.855469 L 187.332031 196.480469 C 187.332031 188.875 181.160156 182.699219 173.550781 182.699219 L 168.957031 182.699219 C 165.402344 182.699219 162.210938 184.082031 159.769531 186.289062 L 159.769531 178.105469 L 150.582031 178.105469 L 150.582031 205.667969 L 155.175781 205.667969 L 155.175781 214.855469 L 141.394531 214.855469 L 141.394531 104.605469 L 150.582031 104.605469 L 150.582031 168.917969 L 159.769531 168.917969 L 159.769531 124.238281 C 166.515625 131.902344 176.347656 136.761719 187.332031 136.761719 C 198.3125 136.761719 208.148438 131.902344 214.894531 124.238281 L 214.894531 168.917969 L 224.082031 168.917969 L 224.082031 104.605469 L 233.269531 104.605469 Z M 191.925781 297.542969 L 144.640625 297.542969 L 123.019531 237.035156 L 123.019531 180.007812 L 132.207031 170.820312 L 132.207031 219.449219 C 132.207031 221.980469 134.269531 224.042969 136.800781 224.042969 L 155.175781 224.042969 L 155.175781 242.417969 L 164.363281 242.417969 L 164.363281 196.480469 C 164.363281 193.953125 166.425781 191.886719 168.957031 191.886719 L 173.550781 191.886719 C 176.078125 191.886719 178.144531 193.953125 178.144531 196.480469 L 178.144531 219.449219 C 178.144531 220.078125 178.269531 220.6875 178.519531 221.261719 L 191.925781 252.558594 Z M 191.925781 315.917969 L 145.988281 315.917969 L 145.988281 306.730469 L 191.925781 306.730469 Z M 86.269531 122.980469 L 132.207031 122.980469 L 132.207031 157.832031 L 115.175781 174.859375 C 114.316406 175.71875 113.832031 176.886719 113.832031 178.105469 L 113.832031 237.824219 C 113.832031 238.347656 113.921875 238.867188 114.101562 239.371094 L 136.800781 302.929688 L 136.800781 320.511719 C 136.800781 323.042969 138.863281 325.105469 141.394531 325.105469 L 196.519531 325.105469 C 199.046875 325.105469 201.113281 323.042969 201.113281 320.511719 L 201.113281 251.605469 C 201.113281 250.980469 200.988281 250.367188 200.734375 249.792969 L 189.699219 224.042969 L 237.863281 224.042969 C 240.390625 224.042969 242.457031 221.980469 242.457031 219.449219 L 242.457031 122.980469 L 288.394531 122.980469 L 288.394531 86.230469 L 297.582031 86.230469 L 297.582031 49.480469 L 77.082031 49.480469 L 77.082031 86.230469 L 86.269531 86.230469 L 86.269531 122.980469 "/></g><path style=" stroke:none;fill-rule:nonzero;fill:#35b084;fill-opacity:1;" d="M 113.832031 95.417969 L 104.644531 95.417969 L 104.644531 104.605469 L 113.832031 104.605469 L 113.832031 95.417969 "/><path style=" stroke:none;fill-rule:nonzero;fill:#35b084;fill-opacity:1;" d="M 270.019531 95.417969 L 260.832031 95.417969 L 260.832031 104.605469 L 270.019531 104.605469 L 270.019531 95.417969 "/><path style=" stroke:none;fill-rule:nonzero;fill:#35b084;fill-opacity:1;" d="M 214.894531 196.480469 L 196.519531 196.480469 L 196.519531 205.667969 L 224.082031 205.667969 L 224.082031 178.105469 L 214.894531 178.105469 L 214.894531 196.480469 "/><path style=" stroke:none;fill-rule:nonzero;fill:#35b084;fill-opacity:1;" d="M 187.332031 164.324219 C 184.800781 164.324219 182.738281 162.261719 182.738281 159.730469 C 182.738281 157.203125 184.800781 155.136719 187.332031 155.136719 C 189.859375 155.136719 191.925781 157.203125 191.925781 159.730469 C 191.925781 162.261719 189.859375 164.324219 187.332031 164.324219 Z M 201.113281 159.730469 C 201.113281 152.125 194.941406 145.949219 187.332031 145.949219 C 179.722656 145.949219 173.550781 152.125 173.550781 159.730469 C 173.550781 167.339844 179.722656 173.511719 187.332031 173.511719 C 194.941406 173.511719 201.113281 167.339844 201.113281 159.730469 "/></g></svg>